<svg xmlns="http://www.w3.org/2000/svg" width="139" height="32" viewBox="0 0 139 32">
    <g fill="none" fill-rule="evenodd" style="mix-blend-mode:multiply">
        <g fill-rule="nonzero">
            <g fill="#141927">
                <path d="M110.82 14.793c-.15.087-.338.13-.554.13-.072 0-.237-.007-.51-.036v.788c.237.065.474.087.72.087.373 0 .683-.102.935-.297s.475-.499.662-.918l2.116-4.859-1 .015-1.282 3.181-1.245-3.181h-1l1.734 4.164-.18.412c-.115.253-.252.427-.395.514zM115.765 13.47c.159.224.375.397.634.52.266.123.554.188.878.188.612 0 1.115-.21 1.511-.65.396-.434.605-.977.605-1.627 0-.651-.202-1.193-.612-1.627a2.024 2.024 0 0 0-1.533-.65l.036-.008c-.626 0-1.116.21-1.461.629V7.411h-.929v6.659h.864v-.6h.007zm.396-2.618c.26-.245.569-.376.929-.376.381 0 .698.13.957.398s.381.607.381 1.02c0 .419-.122.766-.381 1.033-.26.268-.554.413-.936.413h-.014c-.36 0-.67-.116-.929-.355-.259-.238-.388-.593-.388-1.063s.122-.824.381-1.07zM107.495 20.085h-.007c-.54 0-.972.18-1.303.535v-.434h-.863v4.382h.928V21.95c0-.297.086-.535.274-.723a.968.968 0 0 1 .72-.282c.28 0 .51.1.69.282.18.188.267.433.267.737v2.603h.928v-2.733c0-.52-.144-.94-.432-1.258-.288-.318-.698-.492-1.202-.492zM112.217 20.078c-.626 0-1.159.224-1.59.665a2.242 2.242 0 0 0-.656 1.627c0 .65.223 1.193.662 1.627.44.433 1 .658 1.67.658.662 0 1.238-.232 1.735-.702l-.44-.636c-.388.347-.813.513-1.266.513-.381 0-.698-.1-.957-.303-.26-.203-.418-.492-.475-.853h3.239c.079-.217.086-.586.086-.586 0-.578-.194-1.056-.576-1.439-.374-.383-.856-.571-1.432-.571zm-1.296 1.873a1.38 1.38 0 0 1 .454-.781c.23-.196.49-.29.799-.297.31 0 .568.101.784.297.209.195.317.455.324.78h-2.36zM122.574 14.185c.662 0 1.238-.23 1.735-.7l-.44-.637c-.388.347-.813.513-1.266.513-.381 0-.698-.101-.957-.303-.26-.203-.418-.492-.475-.854h3.239c.086-.231.086-.585.086-.585 0-.579-.194-1.056-.576-1.439-.381-.383-.856-.571-1.432-.571-.626 0-1.159.224-1.59.665a2.242 2.242 0 0 0-.656 1.627c0 .65.223 1.193.662 1.626.44.442 1 .658 1.67.658zm-.935-3.477c.23-.195.489-.29.798-.297.31 0 .57.102.785.297.209.195.317.455.324.78h-2.36c.071-.332.222-.585.453-.78zM117.327 23.801c-.28 0-.496-.05-.633-.166-.144-.116-.209-.31-.209-.585v-2.054h1.288v-.81h-1.288v-1.142h-.936v1.142h-.705v.81h.705v2.133c0 .506.144.89.425 1.135.28.246.67.376 1.173.376.223 0 .475-.036.77-.101v-.788c-.259.029-.439.05-.575.05h-.015zM123.596 22.999l-1.338-2.914h-.317l-1.317 2.95-1.145-2.849h-.986l1.93 4.454h.316l1.36-2.9 1.36 2.9h.324l1.922-4.454h-.986zM128.26 20.085c-.647 0-1.187.224-1.626.658-.44.434-.663.976-.663 1.62 0 .643.224 1.178.663 1.62.439.433.979.657 1.626.664a2.25 2.25 0 0 0 1.627-.665c.453-.44.67-.983.67-1.627a2.18 2.18 0 0 0-.684-1.62c-.44-.433-.98-.643-1.613-.65zm.943 3.283c-.259.267-.576.397-.957.397-.389 0-.705-.13-.965-.397-.259-.268-.381-.608-.381-1.005 0-.412.122-.745.381-1.013.26-.267.576-.397.965-.412h.007c.382.008.698.145.957.405.26.268.382.608.382 1.012 0 .405-.137.745-.389 1.013zM133.536 20.143h.02-.02zM132.277 20.75v-.57h-.864v4.38h.928v-2.342c0-.383.123-.672.36-.89.238-.209.54-.317.9-.317h.28v-.825a1.254 1.254 0 0 0-.345-.043c-.525 0-.95.202-1.26.607zM126.281 11.756c0-.383.122-.672.36-.89.237-.209.54-.317.9-.317h.28v-.825a1.254 1.254 0 0 0-.345-.043c-.533 0-.958.21-1.267.615v-.572h-.864V14.1h.929v-2.343h.007zM127.476 9.674h.02-.02zM134.745 17.88h.929v6.68h-.929zM136.797 22.102l1.749-1.916H137.4l-1.698 1.91 1.893 2.465h1.115zM109.122 9.717h-1.152l-1.691 1.916 1.893 2.466h1.115l-1.914-2.459zM105.322 7.418h.928v6.68h-.928z"/>
            </g>
            <path fill="#31CB9E" d="M88.5 15.976l11.884 6.847a.626.626 0 0 0 .936-.543V9.664a.623.623 0 0 0-.936-.542l-11.883 6.854zM99.7 6.189L91.797.129a.62.62 0 0 0-.986.37l-2.886 13.484L99.628 7.23a.628.628 0 0 0 .072-1.041M91.79 31.856l7.91-6.06a.63.63 0 0 0-.065-1.04l-11.71-6.753 2.886 13.484a.617.617 0 0 0 .98.369"/>
            <path fill="#31CB9E" d="M85.485 15.944l3.11-14.533c.122-.57-.526-.983-.987-.629l-7.96 6.102c-.41.311-.648.803-.648 1.316v15.48c0 .513.238 1.005.648 1.316l7.96 6.102c.461.354 1.109-.058.986-.629l-3.109-14.525z"/>
        </g>
        <text fill="#5A5E67" font-family="Cera-MediumItalic, Cera" font-size="12" font-style="italic" font-weight="500">
            <tspan x="3.828" y="20">Powered by </tspan>
        </text>
    </g>
</svg>
