<?xml version="1.0" encoding="UTF-8"?>
<svg width="139px" height="32px" viewBox="0 0 139 32" version="1.1" xmlns="http://www.w3.org/2000/svg" xmlns:xlink="http://www.w3.org/1999/xlink">
    <!-- Generator: sketchtool 52.5 (67469) - http://www.bohemiancoding.com/sketch -->
    <title>6065B95D-5AB6-44CE-B486-4BEE8D8D9B87</title>
    <desc>Created with sketchtool.</desc>
    <g id="Symbols" stroke="none" stroke-width="1" fill="none" fill-rule="evenodd" opacity="0.300000012">
        <g id="powered" fill="#000000">
            <g id="Group-7" style="mix-blend-mode: multiply;">
                <g id="kyber-logo_gray" transform="translate(79.000000, 0.000000)">
                    <g id="kyber-logo">
                        <g id="Group" transform="translate(26.271205, 7.374687)" fill-rule="nonzero">
                            <path d="M5.54934217,7.41806734 C5.39819277,7.50482836 5.21105542,7.54820887 4.99512771,7.54820887 C4.92315181,7.54820887 4.75760723,7.54097879 4.4840988,7.51205845 L4.4840988,8.30013772 C4.72161928,8.36520849 4.95913976,8.38689875 5.20385783,8.38689875 C5.57813253,8.38689875 5.88762892,8.28567755 6.13954458,8.09046526 C6.39146024,7.89525296 6.61458554,7.59158938 6.80172289,7.17224445 L8.91781446,2.31362724 L7.9173494,2.32808741 L6.63617831,5.50932487 L5.39099518,2.32808741 L4.39053012,2.32808741 L6.1251494,6.49261644 L5.94520964,6.9047313 C5.83004819,7.15778427 5.69329398,7.33130632 5.54934217,7.41806734 Z" id="Shape"></path>
                            <path d="M10.4940867,6.09496176 C10.6524337,6.3190944 10.8683614,6.49261644 11.1274747,6.61552789 C11.3937855,6.73843934 11.6816892,6.8035101 12.0055807,6.8035101 C12.6173759,6.8035101 13.1212072,6.59383763 13.5170747,6.15280244 C13.9129422,5.71899733 14.1216723,5.17674095 14.1216723,4.52603329 C14.1216723,3.87532563 13.9201398,3.33306924 13.5098771,2.89926414 C13.0996145,2.46545903 12.5885855,2.24855647 11.9767904,2.24855647 L12.0127783,2.24132639 C11.386588,2.24132639 10.8971518,2.45099886 10.5516675,2.8703438 L10.5516675,0.0361504256 L9.62317831,0.0361504256 L9.62317831,6.69505883 L10.4868892,6.69505883 L10.4868892,6.09496176 L10.4940867,6.09496176 Z M10.8899542,3.47767095 C11.1490675,3.23184805 11.4585639,3.10170652 11.8184434,3.10170652 C12.1999157,3.10170652 12.5166096,3.23184805 12.7757229,3.4993612 C13.0348361,3.76687435 13.1571952,4.10668835 13.1571952,4.5188032 C13.1571952,4.93814814 13.0348361,5.28519223 12.7757229,5.55270538 C12.5166096,5.82021853 12.2215084,5.96482023 11.8400361,5.96482023 L11.825641,5.96482023 C11.4657614,5.96482023 11.1562651,5.84913887 10.8971518,5.61054606 C10.6380386,5.37195325 10.5084819,5.01767908 10.5084819,4.54772354 C10.5084819,4.07776801 10.630841,3.72349384 10.8899542,3.47767095 Z" id="Shape"></path>
                            <path d="M2.22405542,12.7104897 L2.21685783,12.7104897 C1.67703855,12.7104897 1.24518313,12.8912418 0.914093976,13.245516 L0.914093976,12.8117108 L0.0503831325,12.8117108 L0.0503831325,17.1931424 L0.978872289,17.1931424 L0.978872289,14.5758516 C0.978872289,14.2794181 1.06524337,14.0408253 1.25238072,13.8528431 C1.43951807,13.6648609 1.67703855,13.5708698 1.97213976,13.5708698 C2.25284578,13.5708698 2.48316867,13.672091 2.66310843,13.8528431 C2.84304819,14.0408253 2.92941928,14.2866482 2.92941928,14.5903118 L2.92941928,17.1931424 L3.85790843,17.1931424 L3.85790843,14.4601703 C3.85790843,13.9396041 3.71395663,13.5202592 3.42605301,13.2021354 C3.1381494,12.8840117 2.72788675,12.7104897 2.22405542,12.7104897 Z" id="Shape"></path>
                            <path d="M6.9456747,12.7032596 C6.31948434,12.7032596 5.78686265,12.9273922 5.35500723,13.3684274 C4.92315181,13.8094626 4.70002651,14.351719 4.70002651,14.9951966 C4.70002651,15.6459042 4.92315181,16.1881606 5.36220482,16.6219657 C5.80125783,17.0557708 6.36266988,17.2799035 7.03204578,17.2799035 C7.6942241,17.2799035 8.27003133,17.0485407 8.76666506,16.5785852 L8.32761205,15.9423377 C7.93894217,16.2893818 7.51428434,16.4556737 7.06083614,16.4556737 C6.67936386,16.4556737 6.36266988,16.3544526 6.10355663,16.1520102 C5.84444337,15.9495678 5.68609639,15.6603644 5.62851566,15.2988601 L8.86743133,15.2988601 C8.94660482,15.0819576 8.95380241,14.7132232 8.95380241,14.7132232 C8.95380241,14.1348164 8.75946747,13.6576308 8.37799518,13.2744363 C8.00372048,12.8912418 7.52148193,12.7032596 6.9456747,12.7032596 Z M5.65010843,14.5758516 C5.72208434,14.2504978 5.87323373,13.9902147 6.10355663,13.7950024 C6.33387952,13.5997901 6.59299277,13.505799 6.90248916,13.4985689 C7.21198554,13.4985689 7.4710988,13.5997901 7.68702651,13.7950024 C7.89575663,13.9902147 8.00372048,14.2504978 8.01091807,14.5758516 L5.65010843,14.5758516 Z" id="Shape"></path>
                            <path d="M17.3030072,6.81074019 C17.9651855,6.81074019 18.5409928,6.57937746 19.0376265,6.10942193 L18.5985735,5.47317444 C18.2099036,5.82021853 17.7852458,5.98651048 17.3317976,5.98651048 C16.9503253,5.98651048 16.6336313,5.88528929 16.3745181,5.68284691 C16.1154048,5.48040453 15.9570578,5.19120112 15.8994771,4.82969686 L19.1383928,4.82969686 C19.2247639,4.59833414 19.2247639,4.24405997 19.2247639,4.24405997 C19.2247639,3.66565316 19.0304289,3.18846754 18.6489566,2.80527303 C18.2674843,2.42207852 17.7924434,2.2340963 17.2166361,2.2340963 C16.5904458,2.2340963 16.0578241,2.45822894 15.6259687,2.89926414 C15.1941133,3.34029933 14.970988,3.88255571 14.970988,4.52603329 C14.970988,5.17674095 15.1941133,5.71899733 15.6331663,6.15280244 C16.0722193,6.59383763 16.6336313,6.81074019 17.3030072,6.81074019 Z M16.3673205,3.33306924 C16.5976434,3.13785694 16.8567566,3.04386584 17.166253,3.03663575 C17.4757494,3.03663575 17.7348627,3.13785694 17.9507904,3.33306924 C18.1595205,3.52828154 18.2674843,3.78856461 18.2746819,4.11391844 L15.9138723,4.11391844 C15.9858482,3.78133452 16.1369976,3.52828154 16.3673205,3.33306924 Z" id="Shape"></path>
                            <path d="M12.0559639,16.4267534 C11.7752578,16.4267534 11.5593301,16.3761428 11.4225759,16.2604614 C11.2786241,16.1447801 11.2138458,15.9495678 11.2138458,15.6748246 L11.2138458,13.6214804 L12.5022145,13.6214804 L12.5022145,12.8117108 L11.2138458,12.8117108 L11.2138458,11.6693574 L10.278159,11.6693574 L10.278159,12.8117108 L9.57279518,12.8117108 L9.57279518,13.6214804 L10.278159,13.6214804 L10.278159,15.7543555 C10.278159,16.2604614 10.4221108,16.643656 10.7028169,16.8894789 C10.9835229,17.1353017 11.3721928,17.2654433 11.8760241,17.2654433 C12.0991494,17.2654433 12.3510651,17.2292929 12.6461663,17.1642221 L12.6461663,16.3761428 C12.387053,16.4050632 12.2071133,16.4267534 12.070359,16.4267534 L12.0559639,16.4267534 Z" id="Shape"></path>
                            <polygon id="Shape" points="18.3250651 15.624214 16.9863133 12.7104897 16.6696193 12.7104897 15.3524602 15.6603644 14.2080434 12.8117108 13.2219735 12.8117108 15.1509277 17.2654433 15.4676217 17.2654433 16.8279663 14.3661791 18.1883108 17.2654433 18.5122024 17.2654433 20.433959 12.8117108 19.4478892 12.8117108"></polygon>
                            <path d="M22.9891036,12.7104897 C22.3413205,12.7104897 21.8015012,12.9346223 21.3624482,13.3684274 C20.9233952,13.8022325 20.7002699,14.3444889 20.7002699,14.9879665 C20.7002699,15.631444 20.9233952,16.1664703 21.3624482,16.6075055 C21.8015012,17.0413106 22.3413205,17.2654433 22.9891036,17.2726734 C23.6224916,17.2726734 24.1623108,17.0485407 24.615759,16.6075055 C25.0692072,16.1664703 25.2851349,15.624214 25.2851349,14.9807364 C25.2851349,14.3444889 25.054812,13.8022325 24.6013639,13.3611973 C24.1623108,12.9273922 23.6224916,12.7177197 22.9891036,12.7104897 Z M23.931988,15.9929483 C23.6728747,16.2604614 23.3561807,16.390603 22.9747084,16.390603 C22.5860386,16.390603 22.2693446,16.2604614 22.0102313,15.9929483 C21.7511181,15.7254351 21.628759,15.3856211 21.628759,14.9879665 C21.628759,14.5758516 21.7511181,14.2432677 22.0102313,13.9757545 C22.2693446,13.7082414 22.5860386,13.5780999 22.9747084,13.5636397 L22.981906,13.5636397 C23.3633783,13.5708698 23.6800723,13.7082414 23.9391855,13.9685245 C24.1982988,14.2360376 24.3206578,14.5758516 24.3206578,14.9807364 C24.3206578,15.3856211 24.1839036,15.7254351 23.931988,15.9929483 Z" id="Shape"></path>
                            <path d="M28.2649373,12.7683303 C28.2649373,12.7683303 28.2749373,12.7683303 28.2749373,12.7683303 C28.2749373,12.7683303 28.2849373,12.7683303 28.2849373,12.7683303 L28.2649373,12.7683303 Z" id="Shape"></path>
                            <path d="M27.005359,13.3756575 L27.005359,12.8044808 L26.1416482,12.8044808 L26.1416482,17.1859123 L27.0701373,17.1859123 L27.0701373,14.8433648 C27.0701373,14.4601703 27.1924964,14.1709668 27.4300169,13.9540643 C27.6675373,13.7443918 27.9698361,13.6359405 28.3297157,13.6359405 L28.6104217,13.6359405 L28.6104217,12.8117108 C28.5096554,12.7827905 28.394494,12.7683303 28.2649373,12.7683303 C27.7395133,12.7683303 27.3148554,12.9707727 27.005359,13.3756575 Z" id="Shape"></path>
                            <path d="M21.0097663,4.38143159 C21.0097663,3.99823707 21.1321253,3.70903367 21.3696458,3.49213112 C21.6071663,3.28245865 21.9094651,3.17400737 22.2693446,3.17400737 L22.5500506,3.17400737 L22.5500506,2.34977767 C22.4492843,2.32085733 22.3341229,2.30639716 22.2045663,2.30639716 C21.6719446,2.30639716 21.2472867,2.51606962 20.9377904,2.92095439 L20.9377904,2.34977767 L20.0740795,2.34977767 L20.0740795,6.72397917 L21.0025687,6.72397917 L21.0025687,4.38143159 L21.0097663,4.38143159 Z" id="Shape"></path>
                            <path d="M22.2045663,2.29916707 C22.2045663,2.29916707 22.2145663,2.29916707 22.2145663,2.29916707 C22.2145663,2.29916707 22.2245663,2.29916707 22.2245663,2.29916707 L22.2045663,2.29916707 Z" id="Shape"></path>
                            <polygon id="Rectangle-path" points="29.4741325 10.5053137 30.4026217 10.5053137 30.4026217 17.1859123 29.4741325 17.1859123"></polygon>
                            <polygon id="Shape" points="31.5254458 14.7276834 33.2744602 12.8117108 32.1300434 12.8117108 30.431412 14.7204533 32.3243783 17.1859123 33.4400048 17.1859123"></polygon>
                            <polygon id="Shape" points="3.85071084 2.34254758 2.69909639 2.34254758 1.00766265 4.25852014 2.90062892 6.72397917 4.01625542 6.72397917 2.10169639 4.26575022"></polygon>
                            <polygon id="Rectangle-path" points="0.0503831325 0.0433805108 0.978872289 0.0433805108 0.978872289 6.72397917 0.0503831325 6.72397917"></polygon>
                        </g>
                        <path d="M9.50081928,15.9758641 L21.384041,9.12174343 C21.8015012,8.88315062 22.3197277,9.17958411 22.3197277,9.66399981 L22.3197277,22.2804984 C22.3197277,22.757684 21.8015012,23.0613475 21.384041,22.8227547 L9.50081928,15.9758641 Z M20.7002699,6.1885355 C21.0529518,6.46327874 21.0169639,7.00553512 20.628294,7.22966776 L8.92501205,13.9825673 L11.8112458,0.498458509 C11.9048145,0.0501932311 12.4302386,-0.152249152 12.7973157,0.129724167 L20.7002699,6.1885355 Z M12.7901181,31.8557551 C12.4302386,32.1304983 11.8976169,31.935286 11.8112458,31.4870207 L8.92501205,18.002912 L20.6354916,24.7558115 C21.0169639,24.9799441 21.0529518,25.5222005 20.7002699,25.7969437 L12.7901181,31.8557551 Z M6.48502892,15.9437933 L9.59438795,30.4690343 C9.71674699,31.040211 9.06896386,31.4523259 8.60831807,31.0980517 L0.647783133,24.9958598 C0.237520482,24.6849662 -1.1439738e-12,24.1933204 -1.1439738e-12,23.6799844 L-1.1439738e-12,8.2003721 C-1.1439738e-12,7.68703605 0.237520482,7.19539026 0.647783133,6.8844966 L8.60831807,0.782304757 C9.06896386,0.428030586 9.71674699,0.840145438 9.59438795,1.41132216 L6.48502892,15.9437933 Z" id="Combined-Shape" fill-rule="nonzero"></path>
                    </g>
                </g>
                <text id="Powered-by" font-family="Cera-MediumItalic, Cera" font-size="12" font-style="italic" font-weight="500">
                    <tspan x="3.828" y="20">Powered by </tspan>
                </text>
            </g>
        </g>
    </g>
</svg>