<svg xmlns="http://www.w3.org/2000/svg" width="135" height="32" viewBox="0 0 135 32">
    <g fill="none" fill-rule="evenodd">
        <g fill-rule="nonzero">
            <path fill="#FFF" d="M106.82 14.793c.144-.087.281-.26.396-.514l.18-.412-1.734-4.164h1l1.245 3.181 1.282-3.181 1-.015-2.116 4.859c-.187.42-.41.723-.662.918-.252.195-.562.297-.936.297-.245 0-.482-.022-.72-.087v-.788c.274.029.44.036.511.036.216 0 .403-.043.555-.13zm4.945-1.323h-.007v.6h-.864V7.41h.929v2.835c.345-.42.835-.629 1.461-.629l-.036.007c.612 0 1.123.217 1.533.651.41.434.612.976.612 1.627 0 .65-.209 1.193-.605 1.626-.396.442-.9.651-1.511.651-.324 0-.612-.065-.878-.188a1.602 1.602 0 0 1-.634-.52zm.396-2.618c-.259.246-.381.6-.381 1.07 0 .47.13.825.388 1.063.26.239.569.355.929.355h.014c.382 0 .677-.145.936-.413.259-.267.381-.614.381-1.034 0-.412-.122-.751-.381-1.019a1.273 1.273 0 0 0-.957-.398c-.36 0-.67.13-.929.376zm-8.666 9.233c.504 0 .914.174 1.202.492.288.318.432.737.432 1.258v2.733h-.928v-2.603c0-.304-.087-.55-.267-.737a.942.942 0 0 0-.69-.282.968.968 0 0 0-.72.282c-.188.188-.274.426-.274.723v2.617h-.928v-4.382h.863v.434c.331-.354.763-.535 1.303-.535h.007zm4.722-.007c.576 0 1.058.188 1.432.571.382.383.576.86.576 1.439 0 0-.007.369-.086.586h-3.24c.058.361.217.65.476.853.259.202.576.303.957.303.453 0 .878-.166 1.267-.513l.439.636a2.438 2.438 0 0 1-1.735.702c-.67 0-1.23-.225-1.67-.658-.439-.434-.662-.976-.662-1.627 0-.644.223-1.186.655-1.627a2.147 2.147 0 0 1 1.59-.665zm-1.296 1.873h2.361c-.007-.326-.115-.586-.324-.781a1.127 1.127 0 0 0-.784-.297c-.31.007-.569.101-.8.297a1.38 1.38 0 0 0-.453.78zm11.653-7.766c-.67 0-1.23-.216-1.67-.658-.439-.433-.662-.976-.662-1.626 0-.644.223-1.186.655-1.627a2.147 2.147 0 0 1 1.59-.665c.577 0 1.052.188 1.433.571.382.383.576.86.576 1.439 0 0 0 .354-.086.585h-3.24c.058.362.217.651.476.854.259.202.576.303.957.303.453 0 .878-.166 1.267-.513l.439.636a2.438 2.438 0 0 1-1.735.701zm-.935-3.477c-.23.195-.382.448-.454.78h2.36c-.006-.325-.114-.585-.323-.78a1.127 1.127 0 0 0-.785-.297c-.309.008-.568.102-.798.297zM113.327 23.8h.015c.136 0 .316-.021.575-.05v.788a3.636 3.636 0 0 1-.77.101c-.504 0-.892-.13-1.173-.376-.28-.246-.425-.629-.425-1.135v-2.133h-.705v-.81h.705v-1.142h.936v1.142h1.288v.81h-1.288v2.054c0 .274.065.47.209.585.137.116.352.166.633.166zm6.27-.802l1.122-2.813h.986l-1.922 4.454h-.323l-1.36-2.9-1.361 2.9h-.317l-1.929-4.454h.986l1.145 2.85 1.317-2.95h.317l1.338 2.913zm4.663-2.914c.634.007 1.174.217 1.613.65.453.442.683.984.683 1.62 0 .644-.216 1.186-.669 1.627a2.25 2.25 0 0 1-1.627.665c-.647-.007-1.187-.231-1.626-.665a2.203 2.203 0 0 1-.663-1.62c0-.643.224-1.185.663-1.619.439-.434.979-.658 1.626-.658zm.943 3.283a1.43 1.43 0 0 0 .389-1.013c0-.404-.122-.744-.382-1.012a1.335 1.335 0 0 0-.957-.405h-.007c-.389.015-.705.145-.965.412-.259.268-.381.6-.381 1.013 0 .397.122.737.381 1.005.26.267.576.397.965.397.381 0 .698-.13.957-.397zm4.333-3.225h.02-.02zm-1.26.607c.31-.405.735-.607 1.26-.607.13 0 .245.014.346.043v.825h-.281c-.36 0-.662.108-.9.318-.237.217-.36.506-.36.89v2.342h-.928v-4.382h.864v.571zm-5.995-8.994h-.007V14.1h-.929V9.724h.864v.572c.31-.405.734-.615 1.267-.615.13 0 .244.015.345.043v.825h-.28c-.36 0-.663.108-.9.318-.238.217-.36.506-.36.89zm1.195-2.082h.02-.02zm7.27 8.206h.928v6.68h-.929v-6.68zm2.05 4.222l1.915 2.459h-1.115l-1.893-2.466 1.698-1.909h1.145l-1.75 1.916zM105.123 9.717l-1.75 1.923 1.915 2.459h-1.115l-1.893-2.466 1.691-1.916h1.152zm-3.8-2.299h.928v6.68h-.928v-6.68z"/>
            <path fill="#31CB9E" d="M84.5 15.976l11.884 6.847a.626.626 0 0 0 .936-.543V9.664a.623.623 0 0 0-.936-.542l-11.883 6.854zM95.7 6.189L87.797.129a.62.62 0 0 0-.986.37l-2.886 13.484L95.628 7.23a.628.628 0 0 0 .072-1.041M87.79 31.856l7.91-6.06a.63.63 0 0 0-.065-1.04l-11.71-6.753 2.886 13.484a.617.617 0 0 0 .98.369"/>
            <path fill="#31CB9E" d="M81.485 15.944l3.11-14.533c.122-.57-.526-.983-.987-.629l-7.96 6.102c-.41.311-.648.803-.648 1.316v15.48c0 .513.238 1.005.648 1.316l7.96 6.102c.461.354 1.109-.058.986-.629l-3.109-14.525z"/>
        </g>
        <text fill="#FFF" font-family="Cera-MediumItalic, Cera" font-size="12" font-style="italic" font-weight="500" transform="translate(-4)">
            <tspan x="3.828" y="20">Powered by </tspan>
        </text>
    </g>
</svg>
