<svg xmlns="http://www.w3.org/2000/svg" width="139" height="32" viewBox="0 0 139 32">
    <g fill="#FFF" fill-rule="evenodd">
        <g fill-rule="nonzero">
            <path d="M110.959 14.78c-.152.086-.34.13-.557.13-.072 0-.238-.008-.513-.037v.787c.239.066.477.087.723.087.376 0 .687-.101.94-.296.253-.195.477-.498.665-.917l2.125-4.855-1.005.015-1.286 3.178-1.251-3.178h-1.005l1.742 4.16-.18.412c-.116.253-.253.427-.398.513zM115.925 13.457c.16.224.376.398.636.52.268.123.557.188.882.188.615 0 1.12-.21 1.518-.65.398-.433.608-.975.608-1.625s-.203-1.192-.615-1.625c-.412-.434-.925-.65-1.54-.65l.037-.008c-.63 0-1.12.21-1.468.629V7.404h-.932v6.653h.867v-.6h.007zm.398-2.615c.26-.245.571-.375.932-.375.384 0 .702.13.962.397s.383.607.383 1.019c0 .419-.123.765-.383 1.033-.26.267-.557.411-.94.411h-.014a1.33 1.33 0 0 1-.933-.354c-.26-.238-.39-.592-.39-1.061 0-.47.123-.824.383-1.07zM107.62 20.067h-.008c-.542 0-.976.18-1.308.534v-.433h-.868v4.377h.933V21.93c0-.296.086-.534.274-.722a.975.975 0 0 1 .723-.282c.282 0 .514.102.694.282.181.188.268.434.268.737v2.6h.932v-2.73c0-.52-.144-.94-.433-1.257-.29-.318-.702-.491-1.208-.491zM112.361 20.06c-.628 0-1.163.224-1.597.664-.434.44-.658.983-.658 1.625 0 .65.224 1.192.665 1.626.441.433 1.005.657 1.677.657.665 0 1.244-.231 1.742-.7l-.44-.636c-.391.346-.817.513-1.273.513-.383 0-.701-.102-.961-.304s-.42-.491-.477-.852h3.253c.08-.217.086-.585.086-.585 0-.578-.195-1.055-.578-1.438-.376-.383-.86-.57-1.439-.57zm-1.3 1.87c.072-.325.223-.585.455-.78.231-.195.491-.289.802-.296.31 0 .571.101.788.296.21.195.318.455.325.78h-2.37zM122.764 14.172c.665 0 1.243-.23 1.742-.7l-.44-.636c-.391.347-.818.513-1.273.513-.383 0-.701-.101-.962-.303-.26-.203-.419-.492-.477-.853h3.253c.087-.23.087-.585.087-.585 0-.578-.195-1.055-.578-1.437-.383-.383-.86-.571-1.439-.571-.629 0-1.164.224-1.597.665-.434.44-.658.982-.658 1.625 0 .65.224 1.192.665 1.625.44.44 1.005.657 1.677.657zm-.94-3.474c.231-.195.492-.289.803-.296.31 0 .57.1.787.296.21.195.319.455.326.78h-2.371c.072-.332.224-.585.455-.78zM117.494 23.78c-.282 0-.499-.05-.636-.166-.145-.116-.21-.311-.21-.586v-2.051h1.294v-.81h-1.294v-1.14h-.94v1.14H115v.81h.708v2.13c0 .507.145.89.427 1.135.282.246.672.376 1.178.376.224 0 .477-.037.774-.102v-.787c-.26.029-.441.05-.579.05h-.014zM123.79 22.978l-1.344-2.911h-.318l-1.323 2.947-1.15-2.846h-.99l1.937 4.45h.318l1.367-2.897 1.366 2.897h.325l1.93-4.45h-.99zM128.475 20.067c-.65 0-1.193.224-1.634.657-.441.434-.665.975-.665 1.618 0 .643.224 1.178.665 1.618.44.434.983.658 1.634.665.636 0 1.178-.224 1.633-.665.456-.44.673-.982.673-1.625 0-.636-.232-1.177-.687-1.618-.441-.433-.983-.643-1.62-.65zm.947 3.28c-.26.267-.579.397-.962.397-.39 0-.708-.13-.968-.398-.26-.267-.384-.606-.384-1.004 0-.412.123-.744.384-1.011.26-.267.578-.397.968-.412h.007c.384.007.702.145.962.405.26.267.383.606.383 1.011 0 .405-.137.744-.39 1.011zM133.773 20.125h.02-.02zM132.508 20.731v-.57h-.867v4.377h.932v-2.34c0-.383.123-.672.362-.889.238-.21.542-.318.904-.318h.281v-.823a1.266 1.266 0 0 0-.347-.043c-.527 0-.954.202-1.265.606zM126.487 11.745c0-.382.123-.671.361-.888.239-.21.542-.318.904-.318h.282v-.823a1.266 1.266 0 0 0-.347-.044c-.535 0-.962.21-1.273.614v-.57h-.867v4.37h.933v-2.34h.007zM127.687 9.665h.02-.02zM134.988 17.864h.932v6.674h-.932zM137.048 22.082l1.757-1.914h-1.15l-1.706 1.907 1.902 2.463h1.12zM109.253 9.708h-1.157l-1.698 1.915 1.9 2.463h1.121l-1.923-2.456zM105.436 7.411h.933v6.675h-.933zM88.542 15.961l11.935-6.848c.42-.238.94.058.94.542V22.26c0 .477-.52.78-.94.542l-11.935-6.84zM99.79 6.183a.626.626 0 0 1-.072 1.04L87.964 13.97 90.863.498a.624.624 0 0 1 .99-.368l7.937 6.053zm-7.944 25.644a.62.62 0 0 1-.983-.369l-2.9-13.472 11.762 6.747c.383.224.42.766.065 1.04l-7.944 6.054zm-6.333-15.898l3.123 14.512a.624.624 0 0 1-.99.629l-7.995-6.097A1.649 1.649 0 0 1 79 23.658V8.193c0-.513.239-1.004.65-1.315L87.647.782a.624.624 0 0 1 .99.628l-3.123 14.52z"/>
        </g>
        <text font-family="Cera-MediumItalic, Cera" font-size="12" font-style="italic" font-weight="500">
            <tspan x="3.828" y="20">Powered by </tspan>
        </text>
    </g>
</svg>
