<?xml version="1.0" encoding="UTF-8"?>
<svg width="161px" height="49px" viewBox="0 0 161 49" version="1.1" xmlns="http://www.w3.org/2000/svg" xmlns:xlink="http://www.w3.org/1999/xlink">
    <!-- Generator: Sketch 51.1 (57501) - http://www.bohemiancoding.com/sketch -->
    <title>Kyber Network Outlined Logo Black</title>
    <desc>Created with Sketch.</desc>
    <defs></defs>
    <g id="Payment" stroke="none" stroke-width="1" fill="none" fill-rule="evenodd">
        <g id="Payment-5" transform="translate(-19.000000, -20.000000)">
            <g id="Kyber-Network-Outlined-Logo-Black" transform="translate(19.000000, 20.000000)">
                <path d="M15.0196937,0.506155637 L0.962800875,11.2118086 C0.361050328,11.6683909 0,12.3893103 0,13.1582909 L0,35.8552364 C0,36.6122018 0.361050328,37.3331212 0.962800875,37.8017188 L15.0196937,48.4953564 C15.8982495,49.1682145 17.1137856,49.1682145 17.9923414,48.4953564 L32.0371991,37.7897035 C32.6389497,37.3331212 33,36.6122018 33,35.8432211 L33,13.1462756 C33,12.3893103 32.6389497,11.6683909 32.0371991,11.1997933 L17.9803063,0.494140314 C17.1137856,-0.166702461 15.8982495,-0.166702461 15.0196937,0.506155637 Z M12.4321663,26.3150698 L30.4967177,36.6602631 L16.8971554,47.0174717 L12.4321663,26.3150698 Z M16.8851204,1.97202507 L30.4846827,12.3292336 L12.4321663,22.6744269 L16.8851204,1.97202507 Z M12.9376368,24.500756 L31.1586433,14.0594402 L31.1586433,34.9420719 L12.9376368,24.500756 Z M1.85339168,12.8458925 L14.7910284,2.99332754 L10.1575492,24.500756 L14.7910284,46.0081845 L1.85339168,36.1556195 L1.85339168,12.8458925 Z" id="Shape" fill="#141927" fill-rule="nonzero"></path>
                <path d="M48.522,19.76 C48.9980024,19.76 49.4296647,19.827666 49.817,19.963 C50.2043353,20.098334 50.5356653,20.2919987 50.811,20.544 C51.0863347,20.7960013 51.2986659,21.0946649 51.448,21.44 C51.5973341,21.7853351 51.672,22.1679979 51.672,22.588 C51.672,23.0080021 51.5973341,23.3906649 51.448,23.736 C51.2986659,24.0813351 51.0863347,24.3799987 50.811,24.632 C50.5356653,24.8840013 50.2043353,25.0799993 49.817,25.22 C49.4296647,25.3600007 48.9980024,25.43 48.522,25.43 L46.646,25.43 L46.646,29 L45.162,29 L45.162,19.76 L48.522,19.76 Z M46.646,21.076 L46.646,24.114 L48.508,24.114 C49.0400027,24.114 49.4459986,23.9740014 49.726,23.694 C50.0060014,23.4139986 50.146,23.0500022 50.146,22.602 C50.146,22.1539978 50.0060014,21.7876681 49.726,21.503 C49.4459986,21.2183319 49.0400027,21.076 48.508,21.076 L46.646,21.076 Z M55.6635556,21.972 C56.0835577,21.972 56.4662205,22.0326661 56.8115556,22.154 C57.1568906,22.2753339 57.453221,22.4549988 57.7005556,22.693 C57.9478902,22.9310012 58.1415549,23.2296649 58.2815556,23.589 C58.4215563,23.9483351 58.4915556,24.3659976 58.4915556,24.842 L58.4915556,29 L57.1195556,29 L57.1195556,28.23 C56.8768877,28.5193348 56.5688908,28.7456658 56.1955556,28.909 C55.8222204,29.0723341 55.397558,29.154 54.9215556,29.154 C54.5575538,29.154 54.2285571,29.1073338 53.9345556,29.014 C53.6405541,28.9206662 53.3885566,28.7853342 53.1785556,28.608 C52.9685545,28.4306658 52.8075561,28.2206679 52.6955556,27.978 C52.583555,27.7353321 52.5275556,27.4646682 52.5275556,27.166 C52.5275556,26.5593303 52.75622,26.0810017 53.2135556,25.731 C53.6708912,25.3809982 54.286885,25.206 55.0615556,25.206 L57.0075556,25.206 L57.0075556,24.758 C57.0075556,24.2819976 56.8815568,23.9180013 56.6295556,23.666 C56.3775543,23.4139987 56.013558,23.288 55.5375556,23.288 C55.1362202,23.288 54.7862237,23.3766658 54.4875556,23.554 C54.1888874,23.7313342 53.899557,23.9833317 53.6195556,24.31 L52.7795556,23.442 C53.134224,22.9379975 53.5588864,22.5670012 54.0535556,22.329 C54.5482247,22.0909988 55.084886,21.972 55.6635556,21.972 Z M55.2295556,28.02 C55.4722235,28.02 55.7008878,27.9803337 55.9155556,27.901 C56.1302233,27.8216663 56.3192214,27.7096674 56.4825556,27.565 C56.6458897,27.4203326 56.7742218,27.2476677 56.8675556,27.047 C56.9608894,26.8463323 57.0075556,26.6293345 57.0075556,26.396 L57.0075556,26.27 L55.2435556,26.27 C54.8515536,26.27 54.5505566,26.3399993 54.3405556,26.48 C54.1305545,26.6200007 54.0255556,26.8299986 54.0255556,27.11 C54.0255556,27.4086682 54.1422211,27.6349992 54.3755556,27.789 C54.6088901,27.9430008 54.8935539,28.02 55.2295556,28.02 Z M63.3511112,29.784 C63.0617764,30.44667 62.7141132,30.9273318 62.3081112,31.226 C61.9021091,31.5246682 61.4051141,31.674 60.8171112,31.674 C60.6304436,31.674 60.4391121,31.6623334 60.2431112,31.639 C60.0471102,31.6156665 59.8604454,31.5806669 59.6831112,31.534 L59.6831112,30.288 C59.851112,30.3066668 60.0004438,30.3206666 60.1311112,30.33 C60.2617785,30.3393334 60.3877772,30.344 60.5091112,30.344 C60.8264461,30.344 61.1087766,30.2786673 61.3561112,30.148 C61.6034457,30.0173327 61.8204436,29.7466687 62.0071112,29.336 L62.2871112,28.692 L59.5431112,22.126 L61.1251112,22.126 L63.0851112,27.138 L65.1291112,22.126 L66.6971112,22.126 L63.3511112,29.784 Z M75.6026667,21.972 C76.0040021,21.972 76.3633318,22.039666 76.6806667,22.175 C76.9980017,22.310334 77.263999,22.4969988 77.4786667,22.735 C77.6933345,22.9730012 77.8566662,23.2599983 77.9686667,23.596 C78.0806673,23.9320017 78.1366667,24.3006647 78.1366667,24.702 L78.1366667,29 L76.6666667,29 L76.6666667,24.912 C76.6666667,24.4359976 76.540668,24.0510015 76.2886667,23.757 C76.0366655,23.4629985 75.686669,23.316 75.2386667,23.316 C74.7906645,23.316 74.4266681,23.4606652 74.1466667,23.75 C73.8666653,24.0393348 73.7266667,24.4033311 73.7266667,24.842 L73.7266667,29 L72.2566667,29 L72.2566667,24.912 C72.2566667,24.4359976 72.1283347,24.0510015 71.8716667,23.757 C71.6149988,23.4629985 71.262669,23.316 70.8146667,23.316 C70.3666645,23.316 70.0026681,23.4629985 69.7226667,23.757 C69.4426653,24.0510015 69.3026667,24.4359976 69.3026667,24.912 L69.3026667,29 L67.8326667,29 L67.8326667,22.126 L69.1906667,22.126 L69.1906667,22.798 C69.4240012,22.5366654 69.7109984,22.3336674 70.0516667,22.189 C70.3923351,22.0443326 70.7726646,21.972 71.1926667,21.972 C71.6873359,21.972 72.1073317,22.069999 72.4526667,22.266 C72.7980018,22.462001 73.0733324,22.7279983 73.2786667,23.064 C73.5213346,22.7373317 73.8409981,22.4736677 74.2376667,22.273 C74.6343354,22.0723323 75.0893308,21.972 75.6026667,21.972 Z M83.1222223,21.972 C83.5795579,21.972 84.0042204,22.0513325 84.3962223,22.21 C84.7882243,22.3686675 85.1242209,22.5879986 85.4042223,22.868 C85.6842237,23.1480014 85.9035549,23.4816647 86.0622223,23.869 C86.2208898,24.2563353 86.3002223,24.6739978 86.3002223,25.122 C86.3002223,25.3086676 86.2885558,25.4859992 86.2652223,25.654 C86.2418889,25.8220008 86.2162225,25.9526662 86.1882223,26.046 L81.0642223,26.046 C81.1668895,26.6153362 81.418887,27.0586651 81.8202223,27.376 C82.2215577,27.6933349 82.7162194,27.852 83.3042223,27.852 C83.7055577,27.852 84.069554,27.7796674 84.3962223,27.635 C84.7228906,27.4903326 85.0262209,27.2920013 85.3062223,27.04 L86.0202223,28.048 C85.6562205,28.3933351 85.2455579,28.663999 84.7882223,28.86 C84.3308867,29.056001 83.8268917,29.154 83.2762223,29.154 C82.7442197,29.154 82.2495579,29.0630009 81.7922223,28.881 C81.3348867,28.6989991 80.9428906,28.4470016 80.6162223,28.125 C80.289554,27.8029984 80.0328899,27.4226689 79.8462223,26.984 C79.6595547,26.5453311 79.5662223,26.0740025 79.5662223,25.57 C79.5662223,25.0659975 79.6572214,24.5946689 79.8392223,24.156 C80.0212232,23.7173311 80.2732207,23.3370016 80.5952223,23.015 C80.9172239,22.6929984 81.2928868,22.4386676 81.7222223,22.252 C82.1515578,22.0653324 82.6182198,21.972 83.1222223,21.972 Z M83.0802223,23.218 C82.5762198,23.218 82.1468908,23.3696651 81.7922223,23.673 C81.4375539,23.9763348 81.2042229,24.3846641 81.0922223,24.898 L84.8302223,24.898 C84.8115556,24.356664 84.6318907,23.9413348 84.2912223,23.652 C83.950554,23.3626652 83.5468913,23.218 83.0802223,23.218 Z M91.2157779,21.972 C91.6171133,21.972 91.976443,22.039666 92.2937779,22.175 C92.6111128,22.310334 92.8817768,22.4969988 93.1057779,22.735 C93.329779,22.9730012 93.5001107,23.2599983 93.6167779,23.596 C93.7334452,23.9320017 93.7917779,24.3006647 93.7917779,24.702 L93.7917779,29 L92.3077779,29 L92.3077779,24.898 C92.3077779,24.4219976 92.1747792,24.0370015 91.9087779,23.743 C91.6427766,23.4489985 91.2811135,23.302 90.8237779,23.302 C90.3664423,23.302 89.9907794,23.4489985 89.6967779,23.743 C89.4027764,24.0370015 89.2557779,24.4219976 89.2557779,24.898 L89.2557779,29 L87.7857779,29 L87.7857779,22.126 L89.1437779,22.126 L89.1437779,22.826 C89.3864458,22.555332 89.6827762,22.3453341 90.0327779,22.196 C90.3827797,22.0466659 90.7771091,21.972 91.2157779,21.972 Z M99.5053335,23.4 L97.4473335,23.4 L97.4473335,26.634 C97.4473335,27.0913356 97.5663323,27.4039992 97.8043335,27.572 C98.0423347,27.7400008 98.3806646,27.824 98.8193335,27.824 C98.9406674,27.824 99.0759994,27.8170001 99.2253335,27.803 C99.3746676,27.7889999 99.5379993,27.7726668 99.7153335,27.754 L99.7153335,29 C99.5286659,29.0466669 99.3396678,29.0839999 99.1483335,29.112 C98.9569992,29.1400001 98.744668,29.154 98.5113335,29.154 C97.7459963,29.154 97.1323358,28.9626686 96.6703335,28.58 C96.2083312,28.1973314 95.9773335,27.5906708 95.9773335,26.76 L95.9773335,23.4 L94.8573335,23.4 L94.8573335,22.126 L95.9773335,22.126 L95.9773335,20.32 L97.4473335,20.32 L97.4473335,22.126 L99.5053335,22.126 L99.5053335,23.4 Z M109.154445,19.606 C109.966449,19.606 110.696775,19.7739983 111.345445,20.11 C111.994115,20.4460017 112.537776,20.9219969 112.976445,21.538 L111.898445,22.42 C111.571776,21.9626644 111.17978,21.6056679 110.722445,21.349 C110.265109,21.092332 109.737781,20.964 109.140445,20.964 C108.645776,20.964 108.195447,21.0503325 107.789445,21.223 C107.383443,21.3956675 107.033446,21.6336651 106.739445,21.937 C106.445443,22.2403348 106.216779,22.5996646 106.053445,23.015 C105.890111,23.4303354 105.808445,23.8806642 105.808445,24.366 C105.808445,24.8606691 105.892444,25.3203312 106.060445,25.745 C106.228445,26.1696688 106.461776,26.5359985 106.760445,26.844 C107.059113,27.1520015 107.416109,27.3923325 107.831445,27.565 C108.24678,27.7376675 108.706442,27.824 109.210445,27.824 C109.835781,27.824 110.384109,27.6956679 110.855445,27.439 C111.32678,27.182332 111.702443,26.8440021 111.982445,26.424 L111.982445,25.43 L109.126445,25.43 L109.126445,24.114 L113.466445,24.114 L113.466445,26.718 C113.26111,27.0820018 113.011446,27.4133318 112.717445,27.712 C112.423443,28.0106682 112.092113,28.2673323 111.723445,28.482 C111.354776,28.6966677 110.953447,28.8623327 110.519445,28.979 C110.085442,29.0956672 109.630447,29.154 109.154445,29.154 C108.463775,29.154 107.822114,29.0326679 107.229445,28.79 C106.636775,28.5473321 106.123447,28.2113355 105.689445,27.782 C105.255442,27.3526645 104.912446,26.8463362 104.660445,26.263 C104.408443,25.6796637 104.282445,25.0520034 104.282445,24.38 C104.282445,23.7079966 104.408443,23.0803362 104.660445,22.497 C104.912446,21.9136637 105.255442,21.4073355 105.689445,20.978 C106.123447,20.5486645 106.636775,20.2126679 107.229445,19.97 C107.822114,19.7273321 108.463775,19.606 109.154445,19.606 Z M117.626,21.972 C118.046002,21.972 118.428665,22.0326661 118.774,22.154 C119.119335,22.2753339 119.415666,22.4549988 119.663,22.693 C119.910335,22.9310012 120.104,23.2296649 120.244,23.589 C120.384001,23.9483351 120.454,24.3659976 120.454,24.842 L120.454,29 L119.082,29 L119.082,28.23 C118.839332,28.5193348 118.531335,28.7456658 118.158,28.909 C117.784665,29.0723341 117.360003,29.154 116.884,29.154 C116.519998,29.154 116.191002,29.1073338 115.897,29.014 C115.602999,28.9206662 115.351001,28.7853342 115.141,28.608 C114.930999,28.4306658 114.770001,28.2206679 114.658,27.978 C114.546,27.7353321 114.49,27.4646682 114.49,27.166 C114.49,26.5593303 114.718665,26.0810017 115.176,25.731 C115.633336,25.3809982 116.24933,25.206 117.024,25.206 L118.97,25.206 L118.97,24.758 C118.97,24.2819976 118.844001,23.9180013 118.592,23.666 C118.339999,23.4139987 117.976003,23.288 117.5,23.288 C117.098665,23.288 116.748668,23.3766658 116.45,23.554 C116.151332,23.7313342 115.862002,23.9833317 115.582,24.31 L114.742,23.442 C115.096669,22.9379975 115.521331,22.5670012 116.016,22.329 C116.510669,22.0909988 117.047331,21.972 117.626,21.972 Z M117.192,28.02 C117.434668,28.02 117.663332,27.9803337 117.878,27.901 C118.092668,27.8216663 118.281666,27.7096674 118.445,27.565 C118.608334,27.4203326 118.736666,27.2476677 118.83,27.047 C118.923334,26.8463323 118.97,26.6293345 118.97,26.396 L118.97,26.27 L117.206,26.27 C116.813998,26.27 116.513001,26.3399993 116.303,26.48 C116.092999,26.6200007 115.988,26.8299986 115.988,27.11 C115.988,27.4086682 116.104666,27.6349992 116.338,27.789 C116.571335,27.9430008 116.855999,28.02 117.192,28.02 Z M126.167556,23.4 L124.109556,23.4 L124.109556,26.634 C124.109556,27.0913356 124.228555,27.4039992 124.466556,27.572 C124.704557,27.7400008 125.042887,27.824 125.481556,27.824 C125.60289,27.824 125.738222,27.8170001 125.887556,27.803 C126.03689,27.7889999 126.200222,27.7726668 126.377556,27.754 L126.377556,29 C126.190888,29.0466669 126.00189,29.0839999 125.810556,29.112 C125.619222,29.1400001 125.40689,29.154 125.173556,29.154 C124.408219,29.154 123.794558,28.9626686 123.332556,28.58 C122.870554,28.1973314 122.639556,27.5906708 122.639556,26.76 L122.639556,23.4 L121.519556,23.4 L121.519556,22.126 L122.639556,22.126 L122.639556,20.32 L124.109556,20.32 L124.109556,22.126 L126.167556,22.126 L126.167556,23.4 Z M130.663111,21.972 C131.120447,21.972 131.545109,22.0513325 131.937111,22.21 C132.329113,22.3686675 132.66511,22.5879986 132.945111,22.868 C133.225113,23.1480014 133.444444,23.4816647 133.603111,23.869 C133.761779,24.2563353 133.841111,24.6739978 133.841111,25.122 C133.841111,25.3086676 133.829445,25.4859992 133.806111,25.654 C133.782778,25.8220008 133.757112,25.9526662 133.729111,26.046 L128.605111,26.046 C128.707779,26.6153362 128.959776,27.0586651 129.361111,27.376 C129.762447,27.6933349 130.257108,27.852 130.845111,27.852 C131.246447,27.852 131.610443,27.7796674 131.937111,27.635 C132.26378,27.4903326 132.56711,27.2920013 132.847111,27.04 L133.561111,28.048 C133.19711,28.3933351 132.786447,28.663999 132.329111,28.86 C131.871776,29.056001 131.367781,29.154 130.817111,29.154 C130.285109,29.154 129.790447,29.0630009 129.333111,28.881 C128.875776,28.6989991 128.48378,28.4470016 128.157111,28.125 C127.830443,27.8029984 127.573779,27.4226689 127.387111,26.984 C127.200444,26.5453311 127.107111,26.0740025 127.107111,25.57 C127.107111,25.0659975 127.19811,24.5946689 127.380111,24.156 C127.562112,23.7173311 127.81411,23.3370016 128.136111,23.015 C128.458113,22.6929984 128.833776,22.4386676 129.263111,22.252 C129.692447,22.0653324 130.159109,21.972 130.663111,21.972 Z M130.621111,23.218 C130.117109,23.218 129.68778,23.3696651 129.333111,23.673 C128.978443,23.9763348 128.745112,24.3846641 128.633111,24.898 L132.371111,24.898 C132.352445,24.356664 132.17278,23.9413348 131.832111,23.652 C131.491443,23.3626652 131.08778,23.218 130.621111,23.218 Z M142.326667,26.578 L144.104667,22.126 L145.658667,22.126 L142.620667,29.154 L142.116667,29.154 L139.946667,24.562 L137.804667,29.154 L137.300667,29.154 L134.248667,22.126 L135.816667,22.126 L137.622667,26.62 L139.708667,21.972 L140.212667,21.972 L142.326667,26.578 Z M149.160223,21.972 C149.580225,21.972 149.962888,22.0326661 150.308223,22.154 C150.653558,22.2753339 150.949888,22.4549988 151.197223,22.693 C151.444557,22.9310012 151.638222,23.2296649 151.778223,23.589 C151.918223,23.9483351 151.988223,24.3659976 151.988223,24.842 L151.988223,29 L150.616223,29 L150.616223,28.23 C150.373555,28.5193348 150.065558,28.7456658 149.692223,28.909 C149.318887,29.0723341 148.894225,29.154 148.418223,29.154 C148.054221,29.154 147.725224,29.1073338 147.431223,29.014 C147.137221,28.9206662 146.885224,28.7853342 146.675223,28.608 C146.465222,28.4306658 146.304223,28.2206679 146.192223,27.978 C146.080222,27.7353321 146.024223,27.4646682 146.024223,27.166 C146.024223,26.5593303 146.252887,26.0810017 146.710223,25.731 C147.167558,25.3809982 147.783552,25.206 148.558223,25.206 L150.504223,25.206 L150.504223,24.758 C150.504223,24.2819976 150.378224,23.9180013 150.126223,23.666 C149.874221,23.4139987 149.510225,23.288 149.034223,23.288 C148.632887,23.288 148.282891,23.3766658 147.984223,23.554 C147.685554,23.7313342 147.396224,23.9833317 147.116223,24.31 L146.276223,23.442 C146.630891,22.9379975 147.055553,22.5670012 147.550223,22.329 C148.044892,22.0909988 148.581553,21.972 149.160223,21.972 Z M148.726223,28.02 C148.96889,28.02 149.197555,27.9803337 149.412223,27.901 C149.62689,27.8216663 149.815888,27.7096674 149.979223,27.565 C150.142557,27.4203326 150.270889,27.2476677 150.364223,27.047 C150.457556,26.8463323 150.504223,26.6293345 150.504223,26.396 L150.504223,26.27 L148.740223,26.27 C148.348221,26.27 148.047224,26.3399993 147.837223,26.48 C147.627222,26.6200007 147.522223,26.8299986 147.522223,27.11 C147.522223,27.4086682 147.638888,27.6349992 147.872223,27.789 C148.105557,27.9430008 148.390221,28.02 148.726223,28.02 Z M156.847778,29.784 C156.558443,30.44667 156.21078,30.9273318 155.804778,31.226 C155.398776,31.5246682 154.901781,31.674 154.313778,31.674 C154.127111,31.674 153.935779,31.6623334 153.739778,31.639 C153.543777,31.6156665 153.357112,31.5806669 153.179778,31.534 L153.179778,30.288 C153.347779,30.3066668 153.497111,30.3206666 153.627778,30.33 C153.758445,30.3393334 153.884444,30.344 154.005778,30.344 C154.323113,30.344 154.605444,30.2786673 154.852778,30.148 C155.100113,30.0173327 155.317111,29.7466687 155.503778,29.336 L155.783778,28.692 L153.039778,22.126 L154.621778,22.126 L156.581778,27.138 L158.625778,22.126 L160.193778,22.126 L156.847778,29.784 Z" id="Payment-Gateway" fill="#222222"></path>
            </g>
        </g>
    </g>
</svg>