<?xml version="1.0" encoding="UTF-8"?>
<svg width="18px" height="18px" viewBox="0 0 18 18" version="1.1" xmlns="http://www.w3.org/2000/svg" xmlns:xlink="http://www.w3.org/1999/xlink">
    <!-- Generator: Sketch 51.1 (57501) - http://www.bohemiancoding.com/sketch -->
    <title>Shape</title>
    <desc>Created with Sketch.</desc>
    <defs></defs>
    <g id="KGO---improve" stroke="none" stroke-width="1" fill="none" fill-rule="evenodd">
        <g id="KGO---Contribute--search" transform="translate(-1077.000000, -891.000000)" fill="#666666" fill-rule="nonzero">
            <g id="Group-3" transform="translate(1063.000000, 872.000000)">
                <path d="M26.5,30 L25.71,30 L25.43,29.73 C26.41,28.59 27,27.11 27,25.5 C27,21.91 24.09,19 20.5,19 C16.91,19 14,21.91 14,25.5 C14,29.09 16.91,32 20.5,32 C22.11,32 23.59,31.41 24.73,30.43 L25,30.71 L25,31.5 L30,36.49 L31.49,35 L26.5,30 Z M20.5,30 C18.01,30 16,27.99 16,25.5 C16,23.01 18.01,21 20.5,21 C22.99,21 25,23.01 25,25.5 C25,27.99 22.99,30 20.5,30 Z" id="Shape"></path>
            </g>
        </g>
    </g>
</svg>