<?xml version="1.0" encoding="UTF-8"?>
<svg width="40px" height="40px" viewBox="0 0 40 40" version="1.1" xmlns="http://www.w3.org/2000/svg" xmlns:xlink="http://www.w3.org/1999/xlink">
    <!-- Generator: sketchtool 52.5 (67469) - http://www.bohemiancoding.com/sketch -->
    <title>99792090-3703-4F46-B25D-093BE9F7CC3E</title>
    <desc>Created with sketchtool.</desc>
    <g id="Kyber-Developer" stroke="none" stroke-width="1" fill="none" fill-rule="evenodd">
        <g id="Pay_onboarding" transform="translate(-384.000000, -122.000000)">
            <g id="Group-5" transform="translate(181.000000, 95.000000)">
                <g id="Group-4" transform="translate(203.000000, 25.000000)">
                    <g id="Group-3" transform="translate(0.000000, 2.000000)">
                        <circle id="Oval" stroke="#00A2BC" stroke-width="3" fill="#FFFFFF" cx="20" cy="20" r="18.5"></circle>
                        <g id="baseline-done-24px" transform="translate(7.000000, 7.000000)">
                            <polygon id="Shape" points="0 0 28 0 28 28 0 28"></polygon>
                        </g>
                        <g id="baseline-cell_wifi-24px" transform="translate(8.000000, 12.000000)" fill="#00A2BC" fill-rule="nonzero">
                            <path d="M3.76612757e-15,4.93462326 L2.18798587,7.10535268 C7.59858657,1.7374249 16.4014134,1.7374249 21.8120141,7.10535268 L24,4.93462326 C17.3681979,-1.64487442 6.61484099,-1.64487442 3.76612757e-15,4.93462326 Z M8.7180212,13.5838862 L11.9915194,16.8315666 L15.2650177,13.5838862 C13.4501767,11.8001861 10.5328622,11.8001861 8.7180212,13.5838862 Z M4.3590106,9.25925473 L6.54699647,11.4299841 C9.54911661,8.45154146 14.4339223,8.45154146 17.4530035,11.4299841 L19.6240283,9.25925473 C15.4176678,5.0860695 8.56537102,5.0860695 4.3590106,9.25925473 Z" id="Shape"></path>
                        </g>
                    </g>
                </g>
            </g>
        </g>
    </g>
</svg>