<?xml version="1.0" encoding="UTF-8"?>
<svg width="13px" height="16px" viewBox="0 0 13 16" version="1.1" xmlns="http://www.w3.org/2000/svg" xmlns:xlink="http://www.w3.org/1999/xlink">
    <!-- Generator: sketchtool 52.5 (67469) - http://www.bohemiancoding.com/sketch -->
    <title>3CEBCAC7-1764-4E81-A0E2-D6D684129B13</title>
    <desc>Created with sketchtool.</desc>
    <g id="Kyber-Developer" stroke="none" stroke-width="1" fill="none" fill-rule="evenodd">
        <g id="Pay_onboarding" transform="translate(-668.000000, -260.000000)">
            <g id="Group-5" transform="translate(181.000000, 95.000000)">
                <g id="Group-2" transform="translate(99.000000, 131.000000)">
                    <g id="Group-8" transform="translate(0.000000, 34.000000)">
                        <g id="baseline-file_copy-24px" transform="translate(386.000000, 0.000000)">
                            <polygon id="Shape" points="0 0 16 0 16 16 0 16"></polygon>
                            <path d="M11.3333333,0.666666667 L3.33333333,0.666666667 C2.6,0.666666667 2,1.26666667 2,2 L2,11.3333333 L3.33333333,11.3333333 L3.33333333,2 L11.3333333,2 L11.3333333,0.666666667 Z M10.6666667,3.33333333 L14.6666667,7.33333333 L14.6666667,14 C14.6666667,14.7333333 14.0666667,15.3333333 13.3333333,15.3333333 L5.99333333,15.3333333 C5.26,15.3333333 4.66666667,14.7333333 4.66666667,14 L4.67333333,4.66666667 C4.67333333,3.93333333 5.26666667,3.33333333 6,3.33333333 L10.6666667,3.33333333 Z M10,8 L13.6666667,8 L10,4.33333333 L10,8 Z" id="Shape" fill="#00A2BC" fill-rule="nonzero"></path>
                        </g>
                    </g>
                </g>
            </g>
        </g>
    </g>
</svg>