<?xml version="1.0" encoding="UTF-8"?>
<svg width="131px" height="45px" viewBox="0 0 131 45" version="1.1" xmlns="http://www.w3.org/2000/svg" xmlns:xlink="http://www.w3.org/1999/xlink">
    <!-- Generator: Sketch 51 (57462) - http://www.bohemiancoding.com/sketch -->
    <title>Kyber Network Outlined Logo Black</title>
    <desc>Created with Sketch.</desc>
    <defs></defs>
    <g id="Payment" stroke="none" stroke-width="1" fill="none" fill-rule="evenodd">
        <g id="KyberWidget" transform="translate(-535.000000, -58.000000)">
            <rect fill="" x="0" y="0" width="1200" height="735"></rect>
            <g id="Kyber-Network-Outlined-Logo-Black" transform="translate(535.000000, 58.000000)" fill="#222222">
                <path d="M13.654267,0.46483681 L0.875273523,10.2965589 C0.328227571,10.7158692 0,11.377938 0,12.0841447 L0,32.9282784 C0,33.6234506 0.328227571,34.2855195 0.875273523,34.7158642 L13.654267,44.5365518 C14.452954,45.1544827 15.5579869,45.1544827 16.356674,44.5365518 L29.1247265,34.7048297 C29.6717724,34.2855195 30,33.6234506 30,32.9172439 L30,12.0731103 C30,11.377938 29.6717724,10.7158692 29.1247265,10.2855244 L16.345733,0.453802329 C15.5579869,-0.153094097 14.452954,-0.153094097 13.654267,0.46483681 Z M11.3019694,24.1669009 L27.7242888,33.6675886 L15.3610503,43.1793107 L11.3019694,24.1669009 Z M15.3501094,1.81104343 L27.7133479,11.3227656 L11.3019694,20.8234533 L15.3501094,1.81104343 Z M11.761488,22.5006943 L28.3260394,12.9117308 L28.3260394,32.0896578 L11.761488,22.5006943 Z M1.68490153,11.7972483 L13.4463895,2.74897427 L9.23413567,22.5006943 L13.4463895,42.2524144 L1.68490153,33.2041404 L1.68490153,11.7972483 Z" id="Shape" fill-rule="nonzero"></path>
                <path d="M47.4205775,22.512221 L51.7495242,27.3613177 L49.8902061,27.3613177 L45.5470662,22.512221 L49.4786013,18.2433581 L51.3237261,18.2433581 L47.4205775,22.512221 Z M45.5044864,27.3613177 L44,27.3613177 L44,18.2433581 L45.5044864,18.2433581 L45.5044864,27.3613177 Z M55.5769754,28.1349628 C55.2836464,28.7888804 54.9311837,29.2631937 54.5195769,29.5579171 C54.1079701,29.8526405 53.6041141,30 53.0079939,30 C52.8187494,30 52.6247767,29.9884875 52.4260699,29.9654623 C52.2273632,29.942437 52.0381215,29.9078996 51.8583392,29.8618491 L51.8583392,28.6323061 C52.0286593,28.6507263 52.1800526,28.6645412 52.3125238,28.6737513 C52.444995,28.6829614 52.5727331,28.6875664 52.695742,28.6875664 C53.0174577,28.6875664 53.3036857,28.6230966 53.5544347,28.4941552 C53.8051837,28.3652137 54.0251771,28.0981246 54.2144217,27.6928799 L54.498287,27.0573858 L51.7164065,20.5781084 L53.3202458,20.5781084 L55.3073033,25.5239107 L57.3795204,20.5781084 L58.9691663,20.5781084 L55.5769754,28.1349628 Z M61.760509,21.4070138 C62.0254513,21.1030803 62.3589898,20.8636211 62.7611344,20.6886291 C63.163279,20.5136371 63.6056314,20.4261424 64.0882049,20.4261424 C64.5802406,20.4261424 65.0344207,20.5159396 65.4507586,20.6955367 C65.8670965,20.8751337 66.2290212,21.1238029 66.5365436,21.4415515 C66.8440659,21.7593002 67.0829835,22.1346064 67.2533036,22.5674814 C67.4236237,23.0003564 67.5087824,23.4700648 67.5087824,23.9766206 C67.5087824,24.4831765 67.4236237,24.9505823 67.2533036,25.3788523 C67.0829835,25.8071222 66.8464314,26.1801259 66.5436402,26.4978746 C66.240849,26.8156233 65.8812898,27.0642924 65.4649519,27.2438895 C65.0486139,27.4234866 64.5944339,27.5132837 64.1023982,27.5132837 C63.5819758,27.5132837 63.106506,27.4165791 62.6759748,27.2231668 C62.2454435,27.0297546 61.902443,26.7534556 61.6469629,26.3942614 L61.6469629,27.3613177 L60.2702159,27.3613177 L60.2702159,17 L61.760509,17 L61.760509,21.4070138 Z M63.8469194,21.7523911 C63.581977,21.7523911 63.3241352,21.7961384 63.0733863,21.8836344 C62.8226373,21.9711304 62.5979128,22.1069775 62.399206,22.2911796 C62.2004993,22.4753817 62.0420094,22.7056309 61.9237316,22.9819341 C61.8054538,23.2582373 61.7463157,23.5897962 61.7463157,23.9766206 C61.7463157,24.3634451 61.8078193,24.6973064 61.9308282,24.9782147 C62.0538371,25.2591229 62.2146926,25.4893721 62.4133993,25.6689692 C62.6121061,25.8485663 62.8368305,25.9798083 63.0875795,26.0626993 C63.3383285,26.1455902 63.5914393,26.1870351 63.8469194,26.1870351 C64.1497106,26.1870351 64.4312076,26.1317753 64.6914188,26.021254 C64.95163,25.9107327 65.1763545,25.7587682 65.365599,25.565356 C65.5548435,25.3719438 65.7038713,25.1393921 65.8126869,24.8676939 C65.9215025,24.5959958 65.9759095,24.2943694 65.9759095,23.9628055 C65.9759095,23.6312417 65.9215025,23.3296152 65.8126869,23.0579171 C65.7038713,22.786219 65.552478,22.5536673 65.3585024,22.360255 C65.1645267,22.1668428 64.9374367,22.0171808 64.6772255,21.9112646 C64.4170143,21.8053484 64.1402484,21.7523911 63.8469194,21.7523911 Z M72.3439556,20.4261424 C72.8076047,20.4261424 73.2381295,20.5044271 73.635543,20.6609989 C74.0329565,20.8175707 74.3735915,21.034005 74.6574583,21.3103082 C74.941325,21.5866114 75.163684,21.9158677 75.3245418,22.2980871 C75.4853997,22.6803066 75.5658274,23.0924526 75.5658274,23.5345377 C75.5658274,23.7187399 75.5539998,23.8937292 75.5303442,24.0595112 C75.5066887,24.2252931 75.4806679,24.3542326 75.4522813,24.4463337 L70.2575453,24.4463337 C70.3616298,25.0081502 70.617106,25.4456237 71.0239817,25.7587673 C71.4308574,26.0719109 71.9323479,26.2284803 72.5284681,26.2284803 C72.9353438,26.2284803 73.3043651,26.1571031 73.635543,26.0143464 C73.9667209,25.8715898 74.2742386,25.675878 74.5581054,25.4272051 L75.281962,26.4218916 C74.9129352,26.7626655 74.4966035,27.0297546 74.0329545,27.2231668 C73.5693054,27.4165791 73.0583529,27.5132837 72.5000816,27.5132837 C71.9607347,27.5132837 71.4592443,27.4234866 70.9955952,27.2438895 C70.5319461,27.0642924 70.1345386,26.8156233 69.8033607,26.4978746 C69.4721828,26.1801259 69.2119755,25.8048197 69.022731,25.3719447 C68.8334865,24.9390697 68.7388656,24.4739664 68.7388656,23.9766206 C68.7388656,23.4792749 68.8311209,23.0141715 69.0156343,22.5812965 C69.2001478,22.1484215 69.455624,21.7731153 69.7820708,21.4553666 C70.1085176,21.137618 70.4893665,20.8866463 70.9246289,20.7024442 C71.3598912,20.5182421 71.8329954,20.4261424 72.3439556,20.4261424 Z M72.3013758,21.6556854 C71.7904156,21.6556854 71.3551598,21.8053474 70.9955952,22.1046759 C70.6360306,22.4040043 70.3994785,22.8069404 70.2859318,23.3134963 L74.0755343,23.3134963 C74.0566098,22.7793101 73.8744647,22.3694665 73.5290935,22.0839532 C73.1837222,21.7984399 72.7744871,21.6556854 72.3013758,21.6556854 Z M80.6422861,20.5090329 C80.7652951,20.5090329 80.8717435,20.5159404 80.9616347,20.5297556 C81.0515258,20.5435707 81.134319,20.5596882 81.2100169,20.5781084 L81.2100169,21.8629118 L80.7558323,21.8629118 C80.4814277,21.8629118 80.2188549,21.9020542 79.9681059,21.9803401 C79.7173569,22.058626 79.499729,22.1760531 79.3152156,22.3326249 C79.1307022,22.4891967 78.9840399,22.6849085 78.8752243,22.9197662 C78.7664087,23.1546239 78.7120017,23.4286205 78.7120017,23.7417641 L78.7120017,27.3613177 L77.2217086,27.3613177 L77.2217086,20.5781084 L78.5984556,20.5781084 L78.5984556,21.4899044 C78.8444735,21.1675506 79.1448946,20.9234865 79.4997281,20.7577046 C79.8545616,20.5919227 80.2354104,20.5090329 80.6422861,20.5090329 Z M91.8360433,24.4048884 L94.1779325,18.2433581 L95.8385448,18.2433581 L92.190875,27.5132837 L91.6799173,27.5132837 L88.8838436,21.0478215 L86.0877699,27.5132837 L85.5768122,27.5132837 L81.9291424,18.2433581 L83.5897547,18.2433581 L85.9174507,24.4187035 L88.6283648,18.0913921 L89.1393224,18.0913921 L91.8360433,24.4048884 Z M98.8569797,27.3613177 L97.3666866,27.3613177 L97.3666866,20.5781084 L98.8569797,20.5781084 L98.8569797,27.3613177 Z M98.1189298,17.0828905 C98.3933343,17.0828905 98.632252,17.1772927 98.8356898,17.3660999 C99.0391277,17.5549071 99.1408451,17.7828538 99.1408451,18.0499469 C99.1408451,18.3170399 99.0391277,18.5426842 98.8356898,18.7268863 C98.632252,18.9110884 98.3933343,19.0031881 98.1189298,19.0031881 C97.835063,19.0031881 97.5937799,18.9110884 97.3950731,18.7268863 C97.1963664,18.5426842 97.0970145,18.3170399 97.0970145,18.0499469 C97.0970145,17.7828538 97.1963664,17.5549071 97.3950731,17.3660999 C97.5937799,17.1772927 97.835063,17.0828905 98.1189298,17.0828905 Z M107.765621,27.3613177 L106.374681,27.3613177 L106.374681,26.4080765 C106.109738,26.7580606 105.766738,27.0297546 105.345669,27.2231668 C104.9246,27.4165791 104.458592,27.5132837 103.947632,27.5132837 C103.446134,27.5132837 102.987223,27.4234866 102.570885,27.2438895 C102.154547,27.0642924 101.794988,26.8156233 101.492196,26.4978746 C101.189405,26.1801259 100.952853,25.8071222 100.782533,25.3788523 C100.612213,24.9505823 100.527054,24.4831765 100.527054,23.9766206 C100.527054,23.4700648 100.612213,23.0003564 100.782533,22.5674814 C100.952853,22.1346064 101.189405,21.7593002 101.492196,21.4415515 C101.794988,21.1238029 102.154547,20.8751337 102.570885,20.6955367 C102.987223,20.5159396 103.446134,20.4261424 103.947632,20.4261424 C104.430205,20.4261424 104.872558,20.5136371 105.274702,20.6886291 C105.676847,20.8636211 106.010385,21.1076853 106.275328,21.4208289 L106.275328,17 L107.765621,17 L107.765621,27.3613177 Z M104.174724,21.7523911 C103.871933,21.7523911 103.592801,21.8053484 103.337321,21.9112646 C103.081841,22.0171808 102.857117,22.1668428 102.663141,22.360255 C102.469165,22.5536673 102.317772,22.786219 102.208956,23.0579171 C102.100141,23.3296152 102.045734,23.6312417 102.045734,23.9628055 C102.045734,24.2943694 102.100141,24.5959958 102.208956,24.8676939 C102.317772,25.1393921 102.4668,25.3719438 102.656044,25.565356 C102.845289,25.7587682 103.070013,25.9107327 103.330225,26.021254 C103.590436,26.1317753 103.871933,26.1870351 104.174724,26.1870351 C104.430204,26.1870351 104.683315,26.1455902 104.934064,26.0626993 C105.184813,25.9798083 105.409537,25.8485663 105.608244,25.6689692 C105.806951,25.4893721 105.967806,25.2591229 106.090815,24.9782147 C106.213824,24.6973064 106.275328,24.3634451 106.275328,23.9766206 C106.275328,23.5897962 106.21619,23.2582373 106.097912,22.9819341 C105.979634,22.7056309 105.821144,22.4753817 105.622437,22.2911796 C105.423731,22.1069775 105.199006,21.9711304 104.948257,21.8836344 C104.697508,21.7961384 104.439666,21.7523911 104.174724,21.7523911 Z M112.856273,20.4261424 C113.386157,20.4261424 113.863993,20.5251496 114.289793,20.7231668 C114.715593,20.9211841 115.060959,21.1951807 115.325901,21.5451647 L115.325901,20.5781084 L116.716842,20.5781084 L116.716842,26.6567481 C116.716842,27.2001444 116.631683,27.6813652 116.461363,28.1004251 C116.291043,28.5194849 116.052125,28.8694637 115.744603,29.1503719 C115.43708,29.4312802 115.070425,29.6431095 114.644625,29.7858661 C114.218824,29.9286227 113.74572,30 113.225298,30 C112.477782,30 111.824898,29.8710604 111.266627,29.6131775 C110.708355,29.3552945 110.244713,29.0559705 109.875687,28.7151966 L110.684703,27.706695 C111.034805,27.9737881 111.403826,28.2017348 111.791778,28.390542 C112.179729,28.5793492 112.629178,28.6737513 113.140138,28.6737513 C113.764645,28.6737513 114.268501,28.5148794 114.651721,28.1971307 C115.034941,27.879382 115.226548,27.3935562 115.226548,26.7396387 L115.226548,26.2561105 C114.952144,26.5692541 114.609143,26.8087133 114.197537,26.9744952 C113.78593,27.1402771 113.338846,27.2231668 112.856273,27.2231668 C112.373699,27.2231668 111.926616,27.1402771 111.515009,26.9744952 C111.103402,26.8087133 110.746208,26.5761616 110.443417,26.2768332 C110.140626,25.9775047 109.904074,25.6183159 109.733754,25.1992561 C109.563434,24.7801963 109.478275,24.3220004 109.478275,23.8246546 C109.478275,23.3273089 109.563434,22.869113 109.733754,22.4500531 C109.904074,22.0309933 110.140626,21.6718045 110.443417,21.3724761 C110.746208,21.0731476 111.103402,20.8405959 111.515009,20.674814 C111.926616,20.5090321 112.373699,20.4261424 112.856273,20.4261424 Z M113.140138,21.7247609 C112.837347,21.7247609 112.558215,21.7754157 112.302735,21.8767269 C112.047255,21.9780381 111.822531,22.1184901 111.628555,22.2980871 C111.434579,22.4776842 111.283186,22.6987234 111.174371,22.9612115 C111.065555,23.2236995 111.011148,23.511511 111.011148,23.8246546 C111.011148,24.1470083 111.065555,24.4394248 111.174371,24.7019129 C111.283186,24.9644009 111.434579,25.1877426 111.628555,25.3719447 C111.822531,25.5561469 112.047255,25.6989014 112.302735,25.8002125 C112.558215,25.9015237 112.837347,25.9521785 113.140138,25.9521785 C113.40508,25.9521785 113.662922,25.9107337 113.913671,25.8278427 C114.16442,25.7449518 114.389145,25.6160122 114.587851,25.4410202 C114.786558,25.2660282 114.945048,25.0426864 115.063326,24.7709883 C115.181604,24.4992902 115.240742,24.1792438 115.240742,23.8108395 C115.240742,23.4424353 115.179238,23.1269939 115.056229,22.8645058 C114.93322,22.6020178 114.772365,22.3855836 114.573658,22.2151966 C114.374951,22.0448096 114.150227,21.9204751 113.899478,21.8421892 C113.648729,21.7639033 113.395618,21.7247609 113.140138,21.7247609 Z M121.992006,20.4261424 C122.455655,20.4261424 122.88618,20.5044271 123.283593,20.6609989 C123.681007,20.8175707 124.021642,21.034005 124.305509,21.3103082 C124.589375,21.5866114 124.811734,21.9158677 124.972592,22.2980871 C125.13345,22.6803066 125.213878,23.0924526 125.213878,23.5345377 C125.213878,23.7187399 125.20205,23.8937292 125.178395,24.0595112 C125.154739,24.2252931 125.128718,24.3542326 125.100332,24.4463337 L119.905596,24.4463337 C120.00968,25.0081502 120.265156,25.4456237 120.672032,25.7587673 C121.078908,26.0719109 121.580398,26.2284803 122.176519,26.2284803 C122.583394,26.2284803 122.952416,26.1571031 123.283593,26.0143464 C123.614771,25.8715898 123.922289,25.675878 124.206156,25.4272051 L124.930013,26.4218916 C124.560986,26.7626655 124.144654,27.0297546 123.681005,27.2231668 C123.217356,27.4165791 122.706403,27.5132837 122.148132,27.5132837 C121.608785,27.5132837 121.107295,27.4234866 120.643646,27.2438895 C120.179997,27.0642924 119.782589,26.8156233 119.451411,26.4978746 C119.120233,26.1801259 118.860026,25.8048197 118.670781,25.3719447 C118.481537,24.9390697 118.386916,24.4739664 118.386916,23.9766206 C118.386916,23.4792749 118.479171,23.0141715 118.663685,22.5812965 C118.848198,22.1484215 119.103674,21.7731153 119.430121,21.4553666 C119.756568,21.137618 120.137417,20.8866463 120.572679,20.7024442 C121.007942,20.5182421 121.481046,20.4261424 121.992006,20.4261424 Z M121.949426,21.6556854 C121.438466,21.6556854 121.00321,21.8053474 120.643646,22.1046759 C120.284081,22.4040043 120.047529,22.8069404 119.933982,23.3134963 L123.723585,23.3134963 C123.70466,22.7793101 123.522515,22.3694665 123.177144,22.0839532 C122.831773,21.7984399 122.422538,21.6556854 121.949426,21.6556854 Z M130.787101,21.8352816 L128.700691,21.8352816 L128.700691,25.0265675 C128.700691,25.4778627 128.821332,25.7863966 129.062619,25.9521785 C129.303906,26.1179604 129.646906,26.2008502 130.091631,26.2008502 C130.21464,26.2008502 130.35184,26.1939427 130.503236,26.1801275 C130.654631,26.1663124 130.820218,26.1501949 131,26.1317747 L131,27.3613177 C130.810755,27.4073683 130.619148,27.4442082 130.425173,27.4718385 C130.231197,27.4994688 130.015935,27.5132837 129.779379,27.5132837 C129.003476,27.5132837 128.381344,27.3244794 127.912964,26.946865 C127.444584,26.5692507 127.210398,25.9706028 127.210398,25.1509033 L127.210398,21.8352816 L126.074936,21.8352816 L126.074936,20.5781084 L127.210398,20.5781084 L127.210398,18.7959617 L128.700691,18.7959617 L128.700691,20.5781084 L130.787101,20.5781084 L130.787101,21.8352816 Z" id="KyberWidget"></path>
            </g>
        </g>
    </g>
</svg>