<?xml version="1.0" encoding="UTF-8"?>
<svg width="30px" height="30px" viewBox="0 0 30 30" version="1.1" xmlns="http://www.w3.org/2000/svg" xmlns:xlink="http://www.w3.org/1999/xlink">
    <!-- Generator: sketchtool 52.5 (67469) - http://www.bohemiancoding.com/sketch -->
    <title>56FC4965-9A8C-458C-A070-572BA4DD232E</title>
    <desc>Created with sketchtool.</desc>
    <g id="Kyber-Developer" stroke="none" stroke-width="1" fill="none" fill-rule="evenodd">
        <g id="Pay_Step2_Import" transform="translate(-346.000000, -549.000000)" fill="#97AABF">
            <g id="Group-5" transform="translate(294.000000, 528.000000)">
                <path d="M66.9583676,36.7358321 C66.8769338,36.817122 66.8130212,36.8793781 66.7505023,36.9430221 C63.5140552,40.2527083 60.2774091,43.5625928 57.0413602,46.8726756 C56.9923804,46.9230356 56.9408123,46.9729991 56.9019869,47.0308934 C56.7319515,47.2846763 56.7789402,47.6151889 57.0101008,47.8221806 C57.2301115,48.0186641 57.5512674,48.0305602 57.7854145,47.8429987 C57.8714277,47.7741998 57.9462911,47.6911255 58.0235437,47.6120166 C61.2595926,44.3017356 64.4954423,40.9912563 67.7304957,37.6803805 C67.7916208,37.6179261 67.8459764,37.5489288 67.9100881,37.4753714 C67.5909233,37.2273383 67.2900761,36.9935804 66.9583676,36.7358321 M77.6395389,28.8570619 C78.6374517,27.8573951 78.6386463,26.2549939 77.6421273,25.2547322 C76.6426216,24.2514966 75.0014015,24.2526862 73.9997057,25.257508 C72.9954215,26.2649072 73.0075669,27.8799976 74.0265848,28.8806558 C75.0344529,29.8702109 76.6386395,29.8597027 77.6395389,28.8570619 M54.9519554,46.0149686 C54.9260718,45.4729041 54.8934186,44.8209992 54.8645484,44.1690944 C54.8350809,43.5104484 55.1610153,43.1821167 55.8310027,43.1950041 C56.4848625,43.207495 57.1387224,43.2233564 57.8254345,43.2384248 C57.7941751,42.5783909 57.7631148,41.93977 57.7334482,41.301149 C57.6990031,40.559627 58.0028368,40.2689663 58.7544571,40.2592512 C59.3888047,40.2509239 60.0227541,40.196995 60.6859719,40.1615051 C60.6618802,39.6640509 60.6501331,39.0442654 60.5957775,38.428247 C60.5579476,38.0001866 60.6963254,37.6847423 60.9983672,37.3821855 C62.1720895,36.2074481 63.3243084,35.0110996 64.4916594,33.8298194 C64.6306344,33.6892474 64.6628894,33.582381 64.5864332,33.3896646 C63.1035013,29.6503318 64.1155506,25.6591988 67.1990852,23.0507862 C70.3327942,20.3995477 75.1819895,20.3083444 78.4333694,22.8388378 C82.2733028,25.8277265 83.125471,31.0163977 80.4381547,35.0471843 C78.1830948,38.4296349 73.7643639,39.8619223 69.8866006,38.4546166 C69.619203,38.3576636 69.4664896,38.3957311 69.2703715,38.5965765 C65.4897713,42.4735072 61.6998131,46.3413176 57.9172218,50.2162656 C57.6854639,50.4535923 57.4329992,50.5790959 57.1014898,50.6106205 C55.8767967,50.727202 54.6538956,50.8642051 53.429999,50.9905018 C52.8062039,51.0549389 52.4693187,50.7922339 52.3906724,50.1803791 C52.2618516,49.1741695 52.1344246,48.1679598 52.0117761,47.1611554 C51.9307405,46.4957683 52.2710104,46.1394808 52.9374139,46.1246108 C53.6020254,46.1097407 54.2656414,46.0540274 54.9519554,46.0149686" id="Fill-1"></path>
            </g>
        </g>
    </g>
</svg>