<?xml version="1.0" encoding="UTF-8"?>
<svg width="33px" height="30px" viewBox="0 0 33 30" version="1.1" xmlns="http://www.w3.org/2000/svg" xmlns:xlink="http://www.w3.org/1999/xlink">
    <!-- Generator: sketchtool 52.5 (67469) - http://www.bohemiancoding.com/sketch -->
    <title>F3BD4B6D-4E77-447A-86A4-F30D2B979E84</title>
    <desc>Created with sketchtool.</desc>
    <g id="Symbols" stroke="none" stroke-width="1" fill="none" fill-rule="evenodd">
        <g id="metamask_gray">
            <g id="Group-7">
                <polygon id="Path" stroke="#9DAFC6" stroke-width="0.5" fill="#9DAFC6" stroke-linecap="round" stroke-linejoin="round" points="30.325 0.0632911392 17.875 9.41772152 20.1875 3.89873418"></polygon>
                <g id="Group" transform="translate(0.250000, 0.000000)" fill="#9DAFC6">
                    <polygon id="Path" stroke="#9DAFC6" stroke-width="0.5" stroke-linecap="round" stroke-linejoin="round" points="1.3625 0.0632911392 13.7 9.50632911 11.5 3.89873418"></polygon>
                    <polygon id="Path" stroke="#9DAFC6" stroke-width="0.5" stroke-linecap="round" stroke-linejoin="round" points="25.6 21.7468354 22.2875 26.8860759 29.375 28.8607595 31.4 21.8607595"></polygon>
                    <polygon id="Path" stroke="#9DAFC6" stroke-width="0.5" stroke-linecap="round" stroke-linejoin="round" points="0.05 21.8607595 2.0625 28.8607595 9.15 26.8860759 5.85 21.7468354"></polygon>
                    <polygon id="Path" stroke="#9DAFC6" stroke-width="0.5" stroke-linecap="round" stroke-linejoin="round" points="8.7625 13.0632911 6.7875 16.0886076 13.8125 16.4050633 13.575 8.74683544"></polygon>
                    <polygon id="Path" stroke="#9DAFC6" stroke-width="0.5" stroke-linecap="round" stroke-linejoin="round" points="22.675 13.0632911 17.7875 8.65822785 17.625 16.4050633 24.65 16.0886076"></polygon>
                    <polygon id="Path" points="9.15 26.8860759 13.3875 24.7974684 9.7375 21.9113924"></polygon>
                    <polygon id="Path" points="18.05 24.7974684 22.2875 26.8860759 21.7 21.9113924"></polygon>
                </g>
                <g id="Group" transform="translate(9.375000, 24.683544)" fill="#E4E8EA" stroke="#E4E8EB" stroke-linecap="round" stroke-linejoin="round" stroke-width="0.5">
                    <polygon id="Path" points="13.1625 2.20253165 8.925 0.113924051 9.2625 2.91139241 9.225 4.08860759"></polygon>
                    <polygon id="Path" points="0.025 2.20253165 3.9625 4.08860759 3.9375 2.91139241 4.2625 0.113924051"></polygon>
                </g>
                <polygon id="Path" fill="#FFFFFF" points="13.4125 20.0632911 9.8875 19.0126582 12.375 17.8607595"></polygon>
                <polygon id="Path" fill="#FFFFFF" points="18.525 20.0632911 19.5625 17.8607595 22.0625 19.0126582"></polygon>
                <g id="Group" transform="translate(6.000000, 16.075949)" fill="#8B9DB1" stroke="#8C9EB1" stroke-linecap="round" stroke-linejoin="round" stroke-width="0.5">
                    <polygon id="Path" points="3.4 10.8101266 4.0125 5.67088608 0.1 5.78481013"></polygon>
                    <polygon id="Path" points="15.925 5.67088608 16.5375 10.8101266 19.85 5.78481013"></polygon>
                    <polygon id="Path" points="18.9 0.0126582278 11.875 0.329113924 12.525 3.98734177 13.5625 1.78481013 16.0625 2.93670886"></polygon>
                    <polygon id="Path" points="3.8875 2.93670886 6.375 1.78481013 7.4125 3.98734177 8.0625 0.329113924 1.0375 0.0126582278"></polygon>
                </g>
                <g id="Group" transform="translate(7.000000, 16.075949)" stroke="#9DAFC5" stroke-linecap="round" stroke-linejoin="round" stroke-width="0.5">
                    <polygon id="Path" fill="#9DAFC6" points="0.0375 0.0126582278 2.9875 5.83544304 2.8875 2.93670886"></polygon>
                    <polygon id="Path" fill="#9DAFC6" points="15.0625 2.93670886 14.95 5.83544304 17.9 0.0126582278"></polygon>
                    <polygon id="Path" fill="#9DAFC5" points="7.0625 0.329113924 6.4125 3.98734177 7.2375 8.30379747 7.4125 2.62025316"></polygon>
                    <polygon id="Path" fill="#9DAFC5" points="10.875 0.329113924 10.5375 2.60759494 10.7 8.30379747 11.525 3.98734177"></polygon>
                </g>
                <polygon id="Path" stroke="#AABCD6" stroke-width="0.5" fill="#ABBCD7" stroke-linecap="round" stroke-linejoin="round" points="18.525 20.0632911 17.7 24.3797468 18.3 24.7974684 21.95 21.9113924 22.0625 19.0126582"></polygon>
                <polygon id="Path" stroke="#AABCD6" stroke-width="0.5" fill="#ABBCD7" stroke-linecap="round" stroke-linejoin="round" points="9.8875 19.0126582 9.9875 21.9113924 13.6375 24.7974684 14.2375 24.3797468 13.4125 20.0632911"></polygon>
                <polygon id="Path" stroke="#D4D8DA" stroke-width="0.5" fill="#D4D8DA" stroke-linecap="round" stroke-linejoin="round" points="18.6 28.7721519 18.6375 27.5949367 18.325 27.3164557 13.6125 27.3164557 13.3125 27.5949367 13.3375 28.7721519 9.4 26.8860759 10.775 28.0253165 13.575 29.9873418 18.3625 29.9873418 21.1625 28.0253165 22.5375 26.8860759"></polygon>
                <polygon id="Path" stroke="#464646" stroke-width="0.5" fill="#464646" stroke-linecap="round" stroke-linejoin="round" points="18.3 24.7974684 17.7 24.3797468 14.2375 24.3797468 13.6375 24.7974684 13.3125 27.5949367 13.6125 27.3164557 18.325 27.3164557 18.6375 27.5949367"></polygon>
                <g id="Group" fill="#6D7781" stroke="#6D7881" stroke-linecap="round" stroke-linejoin="round" stroke-width="0.5">
                    <polygon id="Path" points="30.85 10.0253165 31.9 4.86075949 30.325 0.0632911392 18.3 9.10126582 22.925 13.0632911 29.4625 15 30.9 13.2911392 30.275 12.835443 31.275 11.9113924 30.5125 11.3037975 31.5125 10.5316456"></polygon>
                    <polygon id="Path" points="0.0375 4.86075949 1.1 10.0253165 0.425 10.5316456 1.425 11.3037975 0.6625 11.9113924 1.6625 12.835443 1.0375 13.2911392 2.475 15 9.0125 13.0632911 13.6375 9.10126582 1.6125 0.0632911392"></polygon>
                </g>
                <polygon id="Path" stroke="#AABCD6" stroke-width="0.5" fill="#ABBCD7" stroke-linecap="round" stroke-linejoin="round" points="29.4625 15 22.925 13.0632911 24.9 16.0886076 21.95 21.9113924 25.85 21.8607595 31.65 21.8607595"></polygon>
                <polygon id="Path" stroke="#AABCD6" stroke-width="0.5" fill="#ABBCD7" stroke-linecap="round" stroke-linejoin="round" points="9.0125 13.0632911 2.475 15 0.3 21.8607595 6.1 21.8607595 9.9875 21.9113924 7.0375 16.0886076"></polygon>
                <polygon id="Path" stroke="#AABCD6" stroke-width="0.5" fill="#ABBCD7" stroke-linecap="round" stroke-linejoin="round" points="17.875 16.4050633 18.3 9.10126582 20.1875 3.89873418 11.75 3.89873418 13.6375 9.10126582 14.0625 16.4050633 14.225 18.7088608 14.2375 24.3797468 17.7 24.3797468 17.7125 18.7088608"></polygon>
            </g>
        </g>
    </g>
</svg>