<?xml version="1.0" encoding="UTF-8"?>
<svg width="21px" height="31px" viewBox="0 0 21 31" version="1.1" xmlns="http://www.w3.org/2000/svg" xmlns:xlink="http://www.w3.org/1999/xlink">
    <!-- Generator: sketchtool 52.5 (67469) - http://www.bohemiancoding.com/sketch -->
    <title>8B9D0888-E170-4554-9194-2325C8267443</title>
    <desc>Created with sketchtool.</desc>
    <defs>
        <polygon id="path-1" points="0 9.1176471e-05 20.7661648 9.1176471e-05 20.7661648 30.7685029 0 30.7685029"></polygon>
    </defs>
    <g id="Kyber-Developer" stroke="none" stroke-width="1" fill="none" fill-rule="evenodd">
        <g id="Pay_Step2_Import" transform="translate(-350.000000, -419.000000)">
            <g id="Group-2" transform="translate(294.000000, 399.000000)">
                <g id="trezor" transform="translate(56.000000, 20.000000)">
                    <mask id="mask-2" fill="white">
                        <use xlink:href="#path-1"></use>
                    </mask>
                    <g id="Clip-2"></g>
                    <path d="M13.8939265,9.49242794 C14.2305441,7.31285441 14.2371618,5.23494265 12.2320147,4.39839853 C11.0721618,3.91470735 9.31495588,4.032325 8.18157353,4.61631029 C6.34098529,5.56363382 6.56069118,7.56085441 6.86819118,9.49242794 L13.8939265,9.49242794 Z M4.06716176,13.4216779 C4.06716176,16.5991779 4.03760294,19.5455456 4.09892647,22.4900897 C4.10775,22.9163397 4.44966176,23.5304132 4.80613235,23.7241632 C7.88289706,25.3931485 10.9574559,27.4742515 14.4065735,24.5018985 C14.7334853,24.2206191 15.22275,24.1476779 15.5783382,23.8919279 C15.9714265,23.608825 16.5970147,23.2350015 16.6058382,22.8867074 C16.6856912,19.7411191 16.6526029,16.5932515 16.6526029,13.4216779 L4.06716176,13.4216779 Z M0.00922058823,9.705325 C1.11833824,9.61779559 1.97466176,9.55078088 2.79613235,9.48604559 C4.09275,2.04558971 6.15436765,-0.290807353 11.0470147,0.0283102941 C15.2576029,0.302751471 17.3681912,3.18073676 17.8084853,9.42769265 C18.6886324,9.52069265 19.6036324,9.61688382 20.7603971,9.73951618 C20.7603971,14.9575456 20.7926029,20.1783103 20.7048088,25.3972515 C20.6973088,25.8490309 19.9746618,26.4416779 19.4584853,26.7056338 C16.8295147,28.0486632 14.1820147,29.3602368 11.4868676,30.5510015 C10.8520147,30.831825 9.90745588,30.8445897 9.27569118,30.5674132 C6.57833824,29.3812074 3.91760294,28.0965309 1.31069118,26.7120162 C0.735838235,26.4074868 0.0784852941,25.5563544 0.0656911765,24.9441044 C-0.0340147059,19.9421632 0.00922058823,14.9370309 0.00922058823,9.705325 Z" id="Fill-1" fill="#97AABF" mask="url(#mask-2)"></path>
                </g>
            </g>
        </g>
    </g>
</svg>